<?xml version="1.0" encoding="UTF-8" ?>
<!DOCTYPE svg PUBLIC "-//W3C//DTD SVG 1.1//EN" "http://www.w3.org/Graphics/SVG/1.1/DTD/svg11.dtd">
<svg width="289pt" height="289pt" viewBox="0 0 289 289" version="1.1" xmlns="http://www.w3.org/2000/svg">
<path fill="#ffffff" d=" M 0.00 0.00 L 289.00 0.00 L 289.00 289.00 L 0.00 289.00 L 0.00 0.00 Z" />
<path fill="#fd3236" d=" M 133.99 38.06 C 137.00 35.92 140.00 33.53 143.69 32.69 C 142.80 36.23 140.63 39.27 139.60 42.77 C 135.52 54.89 137.37 68.83 144.58 79.41 C 147.29 83.60 150.92 87.08 154.79 90.19 C 167.05 100.12 175.61 114.49 178.59 129.98 C 181.75 146.40 178.93 163.96 170.32 178.34 C 164.69 187.84 156.73 195.96 147.34 201.77 C 165.06 200.68 182.47 194.38 196.48 183.42 C 214.42 169.61 226.64 148.59 229.61 126.14 C 232.20 108.00 228.72 89.08 220.06 72.96 C 217.06 67.15 213.01 62.01 209.22 56.73 C 211.24 55.44 212.73 57.61 214.21 58.69 C 233.88 75.10 247.62 98.48 252.18 123.71 C 257.15 150.32 252.06 178.73 237.86 201.81 C 223.87 224.97 201.10 242.62 175.19 250.39 C 152.49 257.21 127.55 256.67 105.24 248.61 C 79.06 239.31 56.70 219.72 44.09 194.96 C 33.88 175.39 29.90 152.70 32.52 130.81 C 35.61 103.88 49.05 78.29 69.51 60.49 C 71.56 58.72 73.52 56.60 76.29 56.00 C 75.91 57.53 75.21 58.95 74.17 60.13 C 62.87 74.23 56.30 91.99 55.43 110.03 C 54.37 130.74 61.04 151.74 73.87 168.05 C 90.08 189.08 116.30 202.00 142.88 201.77 C 150.64 188.24 150.30 170.53 141.49 157.57 C 137.04 150.10 129.15 145.86 123.60 139.37 C 110.83 125.32 104.42 105.78 106.34 86.90 C 108.05 67.68 118.35 49.39 133.99 38.06 Z" />
</svg>
